<svg class="logo-sda" viewBox="976.995 3186.991 80.597 79.166">
    <path id="logo-sda" d="M 1032.402587890625 3237.37353515625 C 1032.7109375 3237.37353515625 1032.993774414063 3237.408935546875 1033.268310546875 3237.408935546875 C 1033.920043945313 3237.408935546875 1034.537353515625 3237.37353515625 1035.368896484375 3237.37353515625 C 1037.162353515625 3237.31201171875 1038.68017578125 3238.720947265625 1038.798217773438 3240.5576171875 C 1038.798217773438 3242.85302734375 1037.743896484375 3244.445068359375 1035.026000976563 3244.445068359375 C 1034.537353515625 3244.445068359375 1034.0400390625 3244.40966796875 1033.55126953125 3244.40966796875 C 1033.482666015625 3244.40966796875 1032.531127929688 3244.445068359375 1032.462646484375 3244.445068359375 C 1032.437255859375 3244.4462890625 1032.412963867188 3244.436767578125 1032.396118164063 3244.418212890625 C 1032.379150390625 3244.399169921875 1032.3720703125 3244.37255859375 1032.376586914063 3244.34716796875 C 1032.376586914063 3244.1279296875 1033.054077148438 3244.38330078125 1033.054077148438 3243.42431640625 L 1033.054077148438 3238.420654296875 C 1033.054077148438 3237.408935546875 1032.282348632813 3237.7255859375 1032.282348632813 3237.470947265625 C 1032.289672851563 3237.409912109375 1032.34326171875 3237.36669921875 1032.402587890625 3237.37353515625 Z M 1035.368896484375 3244.189453125 C 1036.757690429688 3244.189453125 1038.052490234375 3243.42431640625 1038.052490234375 3241.103271484375 C 1038.122680664063 3240.177978515625 1037.80517578125 3239.266845703125 1037.179809570313 3238.5966796875 C 1036.554809570313 3237.9267578125 1035.680786132813 3237.562255859375 1034.77734375 3237.59326171875 C 1033.851440429688 3237.59326171875 1033.82568359375 3237.75244140625 1033.82568359375 3238.236083984375 L 1033.82568359375 3243.01123046875 C 1033.79443359375 3243.247314453125 1033.81494140625 3243.4873046875 1033.8857421875 3243.714599609375 C 1034.311889648438 3244.04345703125 1034.835693359375 3244.21142578125 1035.368896484375 3244.189453125 Z M 1040.616088867188 3241.67431640625 C 1040.430541992188 3241.62939453125 1040.23974609375 3241.720458984375 1040.153076171875 3241.894287109375 L 1039.53564453125 3243.301513671875 C 1039.480712890625 3243.407958984375 1039.448608398438 3243.524658203125 1039.441528320313 3243.64404296875 C 1039.441528320313 3244.347900390625 1040.153076171875 3244.03125 1040.153076171875 3244.285888671875 C 1040.153076171875 3244.480224609375 1039.998657226563 3244.445068359375 1039.878662109375 3244.445068359375 C 1039.595825195313 3244.445068359375 1039.347045898438 3244.40966796875 1039.07275390625 3244.40966796875 C 1038.798583984375 3244.40966796875 1038.5498046875 3244.445068359375 1038.300903320313 3244.445068359375 C 1038.275390625 3244.447509765625 1038.249755859375 3244.43798828125 1038.2314453125 3244.41943359375 C 1038.213134765625 3244.400634765625 1038.203979492188 3244.373779296875 1038.206909179688 3244.34716796875 C 1038.206787109375 3244.12744140625 1038.669921875 3244.285888671875 1038.918212890625 3243.714599609375 L 1041.233276367188 3238.614013671875 C 1041.790649414063 3237.37353515625 1041.816162109375 3237.215576171875 1041.970581054688 3237.215576171875 C 1042.0693359375 3237.30810546875 1042.135864257813 3237.431884765625 1042.159423828125 3237.567626953125 L 1044.19970703125 3242.72119140625 C 1044.318359375 3243.119384765625 1044.473510742188 3243.5048828125 1044.662719726563 3243.872802734375 C 1044.971313476563 3244.312744140625 1045.520263671875 3244.093017578125 1045.520263671875 3244.34716796875 C 1045.520263671875 3244.445068359375 1045.460083007813 3244.445068359375 1045.400024414063 3244.445068359375 C 1044.997192382813 3244.445068359375 1044.594116210938 3244.40966796875 1044.19970703125 3244.40966796875 C 1043.916870117188 3244.40966796875 1043.668090820313 3244.445068359375 1043.39404296875 3244.445068359375 C 1043.359497070313 3244.445068359375 1043.179565429688 3244.445068359375 1043.179565429688 3244.34716796875 C 1043.179565429688 3244.093017578125 1043.762573242188 3244.224853515625 1043.762573242188 3243.83740234375 C 1043.71142578125 3243.510498046875 1043.619262695313 3243.1904296875 1043.488159179688 3242.887451171875 L 1043.179565429688 3242.052490234375 C 1043.146362304688 3241.83154296875 1042.959838867188 3241.67041015625 1042.742309570313 3241.673828125 L 1040.616088867188 3241.67431640625 Z M 1042.588012695313 3241.225830078125 C 1042.810913085938 3241.225830078125 1042.810913085938 3241.16455078125 1042.742309570313 3241.0322265625 L 1041.790649414063 3238.614013671875 C 1041.756225585938 3238.49072265625 1041.696411132813 3238.49072265625 1041.636474609375 3238.614013671875 L 1040.556030273438 3241.068115234375 C 1040.49609375 3241.1904296875 1040.556030273438 3241.225830078125 1040.676025390625 3241.225830078125 L 1042.588012695313 3241.225830078125 Z M 1044.414184570313 3237.37353515625 C 1044.662841796875 3237.37353515625 1044.851440429688 3237.408935546875 1045.494506835938 3237.408935546875 C 1045.837524414063 3237.408935546875 1046.0859375 3237.37353515625 1046.171752929688 3237.37353515625 C 1046.257690429688 3237.37353515625 1046.360595703125 3237.37353515625 1046.360595703125 3237.470947265625 C 1046.186645507813 3237.585693359375 1046.040161132813 3237.739013671875 1045.931640625 3237.91943359375 C 1045.948120117188 3238.068603515625 1046.0009765625 3238.210693359375 1046.086059570313 3238.3330078125 L 1047.252075195313 3240.26708984375 C 1047.294555664063 3240.36279296875 1047.376342773438 3240.433349609375 1047.475219726563 3240.4609375 C 1047.5556640625 3240.407958984375 1047.61865234375 3240.331298828125 1047.655029296875 3240.240966796875 L 1048.649658203125 3238.587646484375 C 1048.76708984375 3238.42919921875 1048.841064453125 3238.240478515625 1048.863891601563 3238.042236328125 C 1048.864013671875 3237.53271484375 1048.1181640625 3237.75244140625 1048.1181640625 3237.496826171875 C 1048.1181640625 3237.37353515625 1048.212524414063 3237.37353515625 1048.33251953125 3237.37353515625 C 1048.555419921875 3237.37353515625 1048.795532226563 3237.408935546875 1049.043823242188 3237.408935546875 C 1049.326904296875 3237.408935546875 1049.6015625 3237.37353515625 1049.875610351563 3237.37353515625 C 1049.927734375 3237.37353515625 1049.9697265625 3237.41748046875 1049.9697265625 3237.470947265625 C 1049.938232421875 3237.570556640625 1049.8564453125 3237.64501953125 1049.755737304688 3237.664794921875 C 1049.51416015625 3237.8427734375 1049.322021484375 3238.08203125 1049.198364257813 3238.35888671875 L 1047.84375 3240.5576171875 C 1047.722412109375 3240.676513671875 1047.646362304688 3240.8349609375 1047.62939453125 3241.006103515625 L 1047.62939453125 3243.459716796875 C 1047.62939453125 3244.313232421875 1048.401000976563 3244.03125 1048.401000976563 3244.348388671875 C 1048.401000976563 3244.445068359375 1048.33251953125 3244.445068359375 1048.177856445313 3244.445068359375 C 1048.057861328125 3244.445068359375 1047.475219726563 3244.40966796875 1047.131958007813 3244.40966796875 C 1046.703369140625 3244.40966796875 1046.326416015625 3244.445068359375 1046.240234375 3244.445068359375 C 1046.171752929688 3244.445068359375 1046.11181640625 3244.445068359375 1046.11181640625 3244.313232421875 C 1046.11181640625 3244.0576171875 1046.857788085938 3244.313232421875 1046.857788085938 3243.583251953125 L 1046.857788085938 3241.1650390625 C 1046.826171875 3240.978515625 1046.749389648438 3240.802734375 1046.634765625 3240.654541015625 L 1045.005615234375 3237.981201171875 C 1044.757080078125 3237.567626953125 1044.294189453125 3237.691162109375 1044.294189453125 3237.497314453125 C 1044.290283203125 3237.46337890625 1044.301513671875 3237.4296875 1044.325073242188 3237.405029296875 C 1044.348510742188 3237.3818359375 1044.381225585938 3237.369873046875 1044.414184570313 3237.37353515625 Z M 1035.120361328125 3246.977294921875 C 1035.643188476563 3246.977294921875 1036.140502929688 3247.0390625 1036.66357421875 3247.0390625 C 1037.126708984375 3247.0390625 1037.555297851563 3246.977294921875 1037.992431640625 3246.977294921875 C 1038.206909179688 3246.977294921875 1038.266845703125 3247.003662109375 1038.266845703125 3247.10009765625 C 1038.266845703125 3247.4521484375 1037.246704101563 3247.135498046875 1037.246704101563 3248.2177734375 L 1037.246704101563 3256.052978515625 C 1037.246704101563 3257.07275390625 1038.481201171875 3256.7216796875 1038.481201171875 3257.170166015625 C 1038.481201171875 3257.26708984375 1038.45556640625 3257.293212890625 1038.206909179688 3257.293212890625 C 1037.898315429688 3257.293212890625 1037.281005859375 3257.2666015625 1036.66357421875 3257.2666015625 C 1035.7978515625 3257.2666015625 1035.5234375 3257.293212890625 1035.30908203125 3257.293212890625 C 1035.060180664063 3257.293212890625 1035.026000976563 3257.231689453125 1035.026000976563 3257.07275390625 C 1035.026000976563 3256.65966796875 1036.1064453125 3257.13525390625 1036.1064453125 3255.700927734375 L 1036.1064453125 3248.21728515625 C 1036.1064453125 3247.162109375 1034.966186523438 3247.4521484375 1034.966186523438 3247.135009765625 C 1034.966186523438 3247.003662109375 1035.00048828125 3246.977294921875 1035.120361328125 3246.977294921875 Z M 1029.761840820313 3259.80908203125 C 1030.070434570313 3259.80908203125 1030.37890625 3259.84375 1030.687622070313 3259.84375 C 1030.962036132813 3259.84375 1031.244995117188 3259.80908203125 1031.485107421875 3259.80908203125 C 1031.639404296875 3259.80908203125 1031.673828125 3259.84375 1031.673828125 3259.8701171875 C 1031.673828125 3260.064453125 1031.056396484375 3259.905517578125 1031.056396484375 3260.57421875 L 1031.056396484375 3262.482666015625 C 1031.056396484375 3262.61376953125 1031.056396484375 3262.6494140625 1031.176513671875 3262.6494140625 L 1034.33154296875 3262.6494140625 C 1034.417358398438 3262.6494140625 1034.3916015625 3262.420166015625 1034.3916015625 3262.394287109375 L 1034.3916015625 3260.57421875 C 1034.3916015625 3259.94091796875 1033.740112304688 3260.098876953125 1033.740112304688 3259.905517578125 C 1033.740112304688 3259.843505859375 1033.774536132813 3259.80908203125 1033.894409179688 3259.80908203125 C 1034.17724609375 3259.80908203125 1034.640380859375 3259.843505859375 1034.794555664063 3259.843505859375 C 1035.103149414063 3259.843505859375 1035.223266601563 3259.80908203125 1035.411743164063 3259.80908203125 C 1035.626342773438 3259.80908203125 1035.65185546875 3259.86962890625 1035.65185546875 3259.9404296875 C 1035.65185546875 3260.098876953125 1035.068969726563 3259.9404296875 1035.068969726563 3260.5732421875 L 1035.068969726563 3265.26123046875 C 1035.068969726563 3265.929443359375 1035.840698242188 3265.76220703125 1035.840698242188 3265.991455078125 C 1035.834594726563 3266.04150390625 1035.795532226563 3266.08154296875 1035.746337890625 3266.08740234375 C 1035.531860351563 3266.087890625 1035.257568359375 3266.052734375 1034.948974609375 3266.052734375 C 1034.3916015625 3266.052734375 1034.17724609375 3266.087890625 1033.98876953125 3266.087890625 C 1033.928588867188 3266.087890625 1033.800170898438 3266.1142578125 1033.800170898438 3265.9560546875 C 1033.800170898438 3265.7626953125 1034.3916015625 3265.89453125 1034.3916015625 3265.3232421875 L 1034.3916015625 3263.185791015625 C 1034.3916015625 3263.062744140625 1034.417358398438 3262.965576171875 1034.33154296875 3262.965576171875 L 1031.150756835938 3262.965576171875 C 1031.056396484375 3262.965576171875 1031.056396484375 3263.02685546875 1031.056396484375 3263.124267578125 L 1031.056396484375 3265.3232421875 C 1031.056396484375 3265.929443359375 1031.862426757813 3265.736328125 1031.862426757813 3266.017822265625 C 1031.838012695313 3266.06640625 1031.786743164063 3266.094482421875 1031.733764648438 3266.08837890625 C 1031.613647460938 3266.087890625 1030.996704101563 3266.052734375 1030.533447265625 3266.052734375 C 1030.284301757813 3266.0439453125 1030.034912109375 3266.05517578125 1029.787475585938 3266.087890625 C 1029.727416992188 3266.087890625 1029.70166015625 3266.052734375 1029.70166015625 3265.9560546875 C 1029.70166015625 3265.701171875 1030.379272460938 3265.991455078125 1030.379272460938 3265.094482421875 L 1030.379272460938 3260.57421875 C 1030.379272460938 3259.905517578125 1029.607421875 3260.099365234375 1029.607421875 3259.905517578125 C 1029.607421875 3259.80908203125 1029.701538085938 3259.80908203125 1029.761840820313 3259.80908203125 Z M 1006.818725585938 3240.619140625 C 1007.830322265625 3240.619140625 1007.556030273438 3239.82763671875 1007.804565429688 3239.82763671875 C 1007.899047851563 3239.82763671875 1007.899047851563 3239.924560546875 1007.899047851563 3240.021484375 L 1007.899047851563 3241.7978515625 C 1007.899047851563 3241.894287109375 1007.864624023438 3241.928955078125 1007.804565429688 3241.928955078125 C 1007.495971679688 3241.928955078125 1007.830322265625 3241.068115234375 1007.032836914063 3241.068115234375 L 1005.583862304688 3241.068115234375 C 1005.361206054688 3241.068115234375 1005.3955078125 3241.225830078125 1005.3955078125 3241.3837890625 L 1005.3955078125 3243.20458984375 C 1005.3955078125 3243.802978515625 1005.335571289063 3244.0576171875 1006.132568359375 3244.0576171875 C 1008.387451171875 3244.0576171875 1008.73046875 3243.01123046875 1008.8505859375 3243.01123046875 C 1008.910522460938 3243.01123046875 1008.910522460938 3243.1083984375 1008.910522460938 3243.13427734375 C 1008.870239257813 3243.50537109375 1008.695678710938 3243.847412109375 1008.421875 3244.093017578125 C 1008.207275390625 3244.385986328125 1007.845092773438 3244.5234375 1007.495971679688 3244.445068359375 C 1006.75 3244.445068359375 1006.012817382813 3244.38330078125 1005.275268554688 3244.40966796875 C 1004.872314453125 3244.40966796875 1004.46923828125 3244.445068359375 1004.1005859375 3244.445068359375 C 1004.00634765625 3244.445068359375 1003.9462890625 3244.40966796875 1003.9462890625 3244.347900390625 C 1004.050659179688 3244.20751953125 1004.204833984375 3244.1162109375 1004.375122070313 3244.093505859375 C 1004.630737304688 3243.879638671875 1004.741455078125 3243.532470703125 1004.658081054688 3243.20458984375 L 1004.658081054688 3238.64892578125 C 1004.658081054688 3238.200927734375 1004.658081054688 3237.7255859375 1004.126342773438 3237.629150390625 C 1004.040771484375 3237.629150390625 1003.817749023438 3237.59326171875 1003.817749023438 3237.470947265625 C 1003.817749023438 3237.408935546875 1003.886474609375 3237.37353515625 1004.160888671875 3237.37353515625 C 1006.012817382813 3237.37353515625 1006.509887695313 3237.408935546875 1006.904296875 3237.408935546875 C 1007.0927734375 3237.408935546875 1007.984741210938 3237.37353515625 1008.293334960938 3237.37353515625 C 1008.387451171875 3237.37353515625 1008.387451171875 3237.470947265625 1008.387451171875 3237.567626953125 C 1008.387451171875 3238.675537109375 1008.267578125 3238.7724609375 1008.207641601563 3238.7724609375 C 1007.958984375 3238.7724609375 1008.138916015625 3238.29736328125 1007.958984375 3238.07763671875 C 1007.710205078125 3237.7255859375 1006.68994140625 3237.787353515625 1006.321411132813 3237.787353515625 C 1005.3955078125 3237.787353515625 1005.3955078125 3237.75244140625 1005.3955078125 3238.420654296875 L 1005.3955078125 3240.26708984375 C 1005.3955078125 3240.619140625 1005.3955078125 3240.619140625 1005.764038085938 3240.619140625 L 1006.818725585938 3240.619140625 Z M 1008.79052734375 3237.37353515625 C 1008.944702148438 3237.37353515625 1009.099243164063 3237.408935546875 1009.253295898438 3237.408935546875 C 1009.37353515625 3237.408935546875 1009.52783203125 3237.37353515625 1009.682250976563 3237.37353515625 C 1009.790893554688 3237.408935546875 1009.880737304688 3237.489013671875 1009.9306640625 3237.59326171875 L 1014.560546875 3242.9150390625 C 1014.591674804688 3242.960693359375 1014.637084960938 3242.994873046875 1014.689208984375 3243.01123046875 C 1014.714965820313 3243.01123046875 1014.714965820313 3242.975830078125 1014.714965820313 3242.9150390625 L 1014.714965820313 3238.7109375 C 1014.714965820313 3237.408935546875 1013.634643554688 3237.787353515625 1013.634643554688 3237.470947265625 C 1013.639038085938 3237.4404296875 1013.655029296875 3237.412841796875 1013.679077148438 3237.394775390625 C 1013.703491210938 3237.376220703125 1013.733764648438 3237.369384765625 1013.76318359375 3237.37451171875 C 1014.037719726563 3237.37353515625 1014.320678710938 3237.408935546875 1014.620849609375 3237.408935546875 C 1014.963623046875 3237.408935546875 1015.36669921875 3237.37353515625 1015.615112304688 3237.37353515625 C 1015.634643554688 3237.37109375 1015.654541015625 3237.37548828125 1015.670532226563 3237.386474609375 C 1015.6865234375 3237.398193359375 1015.697509765625 3237.416259765625 1015.701049804688 3237.435791015625 C 1015.701049804688 3237.7255859375 1015.118041992188 3237.53271484375 1015.118041992188 3238.261962890625 L 1015.118041992188 3244.0576171875 C 1015.118041992188 3244.348388671875 1015.118041992188 3244.480224609375 1015.057739257813 3244.480224609375 C 1014.902099609375 3244.46142578125 1014.7646484375 3244.3662109375 1014.689208984375 3244.225341796875 L 1010.522338867188 3239.343505859375 C 1010.455200195313 3239.274169921875 1010.38037109375 3239.211669921875 1010.299560546875 3239.159423828125 C 1010.273803710938 3239.159423828125 1010.239501953125 3239.185302734375 1010.239501953125 3239.41455078125 L 1010.239501953125 3243.486328125 C 1010.239501953125 3244.40966796875 1011.0712890625 3244.0576171875 1011.0712890625 3244.313232421875 C 1011.0712890625 3244.38330078125 1011.0712890625 3244.445068359375 1010.9853515625 3244.445068359375 C 1010.736938476563 3244.445068359375 1010.488159179688 3244.40966796875 1009.990966796875 3244.40966796875 C 1009.656372070313 3244.40966796875 1009.159301757813 3244.445068359375 1009.099243164063 3244.445068359375 C 1008.979248046875 3244.445068359375 1008.979248046875 3244.3828125 1008.979248046875 3244.34716796875 C 1008.979248046875 3243.99609375 1009.810668945313 3244.445068359375 1009.810668945313 3243.01123046875 L 1009.810668945313 3239.317138671875 C 1009.810668945313 3237.241455078125 1008.636108398438 3237.822509765625 1008.636108398438 3237.470947265625 C 1008.660034179688 3237.406005859375 1008.723754882813 3237.365966796875 1008.79052734375 3237.37451171875 Z M 1016.755615234375 3237.91943359375 C 1016.13818359375 3237.91943359375 1016.13818359375 3238.07763671875 1015.949584960938 3238.614013671875 C 1015.923706054688 3238.7109375 1015.923706054688 3238.8427734375 1015.79541015625 3238.8427734375 C 1015.73486328125 3238.8310546875 1015.693481445313 3238.7734375 1015.701049804688 3238.7109375 L 1015.79541015625 3237.75244140625 C 1015.82958984375 3237.629150390625 1015.79541015625 3237.37451171875 1015.983764648438 3237.37451171875 C 1016.721069335938 3237.37451171875 1017.492797851563 3237.409423828125 1018.727294921875 3237.409423828125 C 1020.493774414063 3237.409423828125 1021.385009765625 3237.37451171875 1021.573852539063 3237.37451171875 C 1021.7880859375 3237.37451171875 1021.813842773438 3237.409423828125 1021.848022460938 3237.66455078125 L 1021.907958984375 3238.455810546875 C 1021.907958984375 3238.55322265625 1021.907958984375 3238.675537109375 1021.787963867188 3238.675537109375 C 1021.444946289063 3238.675537109375 1021.968017578125 3237.91943359375 1020.98193359375 3237.91943359375 L 1019.593139648438 3237.91943359375 C 1019.16455078125 3237.91943359375 1019.190307617188 3237.884521484375 1019.190307617188 3238.393798828125 L 1019.190307617188 3243.522216796875 C 1019.190307617188 3244.348388671875 1019.996215820313 3244.03173828125 1019.996215820313 3244.313232421875 C 1020.003173828125 3244.34423828125 1019.996704101563 3244.3759765625 1019.978393554688 3244.401123046875 C 1019.960205078125 3244.4267578125 1019.932495117188 3244.4423828125 1019.90185546875 3244.445068359375 C 1019.653198242188 3244.445068359375 1019.37890625 3244.40966796875 1019.104248046875 3244.40966796875 C 1018.024047851563 3244.40966796875 1017.835693359375 3244.445068359375 1017.775390625 3244.445068359375 C 1017.739624023438 3244.453125 1017.702026367188 3244.441162109375 1017.676025390625 3244.414794921875 C 1017.650024414063 3244.38818359375 1017.639282226563 3244.35009765625 1017.646850585938 3244.313232421875 C 1017.646850585938 3244.0576171875 1018.418579101563 3244.18994140625 1018.418579101563 3243.582763671875 L 1018.418579101563 3238.35888671875 C 1018.418579101563 3238.29736328125 1018.487182617188 3237.91943359375 1018.332641601563 3237.91943359375 L 1016.755249023438 3237.91943359375 Z M 1021.882568359375 3237.37353515625 C 1022.251220703125 3237.37353515625 1022.585571289063 3237.408935546875 1022.962646484375 3237.408935546875 C 1023.271484375 3237.408935546875 1023.580078125 3237.37353515625 1023.854614257813 3237.37353515625 C 1024.04296875 3237.37353515625 1024.04296875 3237.408935546875 1024.04296875 3237.470947265625 C 1024.04296875 3237.66455078125 1023.357177734375 3237.470947265625 1023.357177734375 3238.236083984375 L 1023.357177734375 3240.3994140625 C 1023.357177734375 3240.53125 1023.357177734375 3240.5576171875 1023.485961914063 3240.5576171875 L 1027.03515625 3240.5576171875 C 1027.155395507813 3240.5576171875 1027.129638671875 3240.302978515625 1027.129638671875 3240.26708984375 L 1027.129638671875 3238.236083984375 C 1027.129638671875 3237.53271484375 1026.383666992188 3237.6904296875 1026.383666992188 3237.470947265625 C 1026.383666992188 3237.408935546875 1026.41796875 3237.37353515625 1026.572265625 3237.37353515625 C 1026.880859375 3237.37353515625 1027.36962890625 3237.408935546875 1027.558349609375 3237.408935546875 C 1027.926879882813 3237.408935546875 1028.081176757813 3237.37353515625 1028.269897460938 3237.37353515625 C 1028.5185546875 3237.37353515625 1028.544067382813 3237.470947265625 1028.544067382813 3237.53173828125 C 1028.544067382813 3237.68994140625 1027.901123046875 3237.53173828125 1027.901123046875 3238.2353515625 L 1027.901123046875 3243.521728515625 C 1027.901123046875 3244.2509765625 1028.758544921875 3244.0576171875 1028.758544921875 3244.312744140625 C 1028.761840820313 3244.370849609375 1028.726928710938 3244.425048828125 1028.672973632813 3244.445068359375 C 1028.389892578125 3244.444580078125 1028.115478515625 3244.4091796875 1027.746948242188 3244.4091796875 C 1027.129638671875 3244.4091796875 1026.8466796875 3244.444580078125 1026.666625976563 3244.444580078125 C 1026.598022460938 3244.444580078125 1026.443725585938 3244.479736328125 1026.443725585938 3244.312744140625 C 1026.443725585938 3244.0576171875 1027.129638671875 3244.224365234375 1027.129638671875 3243.58251953125 L 1027.129638671875 3241.1904296875 C 1027.129638671875 3241.0322265625 1027.155395507813 3240.9443359375 1027.03515625 3240.9443359375 L 1023.451416015625 3240.9443359375 C 1023.357177734375 3240.9443359375 1023.357177734375 3241.006103515625 1023.357177734375 3241.10205078125 L 1023.357177734375 3243.58251953125 C 1023.357177734375 3244.285888671875 1024.257446289063 3244.0576171875 1024.257446289063 3244.382568359375 C 1024.222534179688 3244.432861328125 1024.161987304688 3244.45703125 1024.10302734375 3244.444580078125 C 1023.974365234375 3244.444580078125 1023.271484375 3244.4091796875 1022.774169921875 3244.4091796875 C 1022.496337890625 3244.3974609375 1022.21826171875 3244.40966796875 1021.9423828125 3244.445068359375 C 1021.848266601563 3244.444580078125 1021.813842773438 3244.4091796875 1021.813842773438 3244.285888671875 C 1021.813842773438 3243.99560546875 1022.585571289063 3244.34716796875 1022.585571289063 3243.36279296875 L 1022.585571289063 3238.2353515625 C 1022.585571289063 3237.496826171875 1021.728149414063 3237.68994140625 1021.728149414063 3237.47021484375 C 1021.728271484375 3237.37353515625 1021.813842773438 3237.37353515625 1021.882568359375 3237.37353515625 Z M 1031.973754882813 3240.874267578125 C 1031.973754882813 3241.35791015625 1031.999389648438 3241.35791015625 1031.630737304688 3241.481201171875 L 1029.65869140625 3242.184326171875 C 1029.517578125 3242.24951171875 1029.371337890625 3242.302490234375 1029.221435546875 3242.343017578125 C 1029.067138671875 3242.343017578125 1029.101440429688 3242.14892578125 1029.101440429688 3242.052490234375 C 1029.101440429688 3241.54248046875 1029.067138671875 3241.54248046875 1029.444580078125 3241.419677734375 L 1031.416381835938 3240.716064453125 C 1031.55322265625 3240.647216796875 1031.69677734375 3240.59423828125 1031.844848632813 3240.5576171875 C 1031.999389648438 3240.5576171875 1031.973754882813 3240.777587890625 1031.973754882813 3240.874267578125 Z M 1012.708618164063 3251.7177734375 C 1014.192016601563 3251.7177734375 1013.823364257813 3250.53955078125 1014.15771484375 3250.53955078125 C 1014.267700195313 3250.588623046875 1014.331420898438 3250.70849609375 1014.31201171875 3250.82958984375 C 1014.31201171875 3251.339599609375 1014.286499023438 3251.814697265625 1014.286499023438 3252.298095703125 C 1014.286499023438 3252.676025390625 1014.31201171875 3253.054443359375 1014.31201171875 3253.441650390625 C 1014.320190429688 3253.489013671875 1014.307739257813 3253.537841796875 1014.2783203125 3253.57470703125 C 1014.24853515625 3253.6123046875 1014.204345703125 3253.6337890625 1014.157592773438 3253.635009765625 C 1013.729125976563 3253.635009765625 1014.192016601563 3252.35986328125 1013.017456054688 3252.35986328125 L 1010.916748046875 3252.35986328125 C 1010.608032226563 3252.35986328125 1010.676513671875 3252.614990234375 1010.676513671875 3252.834228515625 L 1010.676513671875 3255.50830078125 C 1010.676513671875 3256.36962890625 1010.548095703125 3256.721923828125 1011.722534179688 3256.721923828125 C 1014.997924804688 3256.721923828125 1015.486572265625 3255.2265625 1015.675170898438 3255.2265625 C 1015.769653320313 3255.2265625 1015.769653320313 3255.350341796875 1015.769653320313 3255.38525390625 C 1015.700317382813 3255.9267578125 1015.458984375 3256.430419921875 1015.08349609375 3256.818115234375 C 1014.735717773438 3257.21826171875 1014.20703125 3257.3994140625 1013.694580078125 3257.293701171875 C 1012.614135742188 3257.293701171875 1011.533935546875 3257.231689453125 1010.45361328125 3257.26708984375 C 1009.905029296875 3257.26708984375 1009.3134765625 3257.293701171875 1008.730346679688 3257.293701171875 C 1008.601928710938 3257.293701171875 1008.507446289063 3257.26708984375 1008.507446289063 3257.170166015625 C 1008.651245117188 3256.9580078125 1008.875 3256.818115234375 1009.124877929688 3256.783203125 C 1009.501953125 3256.590087890625 1009.527709960938 3256.21240234375 1009.527709960938 3255.50830078125 L 1009.527709960938 3248.8505859375 C 1009.527709960938 3248.182373046875 1009.527709960938 3247.487548828125 1008.79052734375 3247.390625 C 1008.661743164063 3247.355712890625 1008.353149414063 3247.329345703125 1008.353149414063 3247.136474609375 C 1008.353149414063 3247.0390625 1008.447509765625 3246.977783203125 1008.850341796875 3246.977783203125 C 1011.508178710938 3246.977783203125 1012.24560546875 3247.0390625 1012.86279296875 3247.0390625 C 1013.145874023438 3247.0390625 1014.440551757813 3246.977783203125 1014.869018554688 3246.977783203125 C 1014.997802734375 3246.977783203125 1015.023559570313 3247.1005859375 1015.023559570313 3247.29443359375 C 1015.023559570313 3248.921875 1014.809204101563 3249.018310546875 1014.749145507813 3249.018310546875 C 1014.406127929688 3249.018310546875 1014.620483398438 3248.314208984375 1014.406127929688 3247.998046875 C 1014.03759765625 3247.488037109375 1012.55419921875 3247.583984375 1011.996948242188 3247.583984375 C 1010.642211914063 3247.583984375 1010.676513671875 3247.51416015625 1010.676513671875 3248.508544921875 L 1010.676513671875 3251.208251953125 C 1010.676513671875 3251.71826171875 1010.642456054688 3251.71826171875 1011.199584960938 3251.71826171875 L 1012.70849609375 3251.71826171875 Z M 1015.82958984375 3246.977783203125 C 1016.078247070313 3246.977783203125 1016.292602539063 3247.0390625 1016.506958007813 3247.0390625 C 1016.721069335938 3247.0390625 1016.935424804688 3246.977783203125 1017.158447265625 3246.977783203125 C 1017.313232421875 3247.036376953125 1017.443481445313 3247.14892578125 1017.527099609375 3247.29443359375 L 1024.283325195313 3255.06884765625 C 1024.322143554688 3255.132568359375 1024.375 3255.18701171875 1024.437622070313 3255.2265625 C 1024.490600585938 3255.19482421875 1024.518188476563 3255.13134765625 1024.505981445313 3255.06884765625 L 1024.505981445313 3248.947998046875 C 1024.505981445313 3247.040283203125 1022.928588867188 3247.61083984375 1022.928588867188 3247.10107421875 C 1022.928588867188 3247.003662109375 1022.988647460938 3246.977783203125 1023.083129882813 3246.977783203125 C 1023.485961914063 3246.977783203125 1023.91455078125 3247.040283203125 1024.351928710938 3247.040283203125 C 1024.84033203125 3247.040283203125 1025.457885742188 3246.977783203125 1025.80078125 3246.977783203125 C 1025.83349609375 3246.9736328125 1025.866455078125 3246.985595703125 1025.889770507813 3247.00927734375 C 1025.9130859375 3247.033447265625 1025.924438476563 3247.0673828125 1025.920654296875 3247.1005859375 C 1025.920776367188 3247.488037109375 1025.089233398438 3247.232421875 1025.089233398438 3248.279296875 L 1025.089233398438 3256.721923828125 C 1025.089233398438 3257.1708984375 1025.089233398438 3257.35546875 1024.960571289063 3257.35546875 C 1024.738403320313 3257.297119140625 1024.549072265625 3257.147705078125 1024.437622070313 3256.941650390625 L 1018.358764648438 3249.871826171875 C 1018.2685546875 3249.771728515625 1018.164306640625 3249.685302734375 1018.050170898438 3249.61572265625 C 1017.990112304688 3249.6162109375 1017.955932617188 3249.651611328125 1017.955932617188 3249.941650390625 L 1017.955932617188 3255.92236328125 C 1017.955932617188 3257.232177734375 1019.1904296875 3256.721923828125 1019.1904296875 3257.100341796875 C 1019.1904296875 3257.197265625 1019.1904296875 3257.294189453125 1019.0361328125 3257.294189453125 C 1018.701538085938 3257.294189453125 1018.298828125 3257.267578125 1017.621337890625 3257.267578125 C 1017.124145507813 3257.267578125 1016.386840820313 3257.294189453125 1016.292602539063 3257.294189453125 C 1016.10400390625 3257.294189453125 1016.10400390625 3257.232177734375 1016.10400390625 3257.1357421875 C 1016.10400390625 3256.62548828125 1017.338500976563 3257.267578125 1017.338500976563 3255.227783203125 L 1017.338500976563 3249.844970703125 C 1017.338500976563 3246.820068359375 1015.640869140625 3247.646484375 1015.640869140625 3247.10107421875 C 1015.67626953125 3247.026611328125 1015.7490234375 3246.97900390625 1015.829345703125 3246.977294921875 Z M 1027.438232421875 3247.769287109375 C 1026.537963867188 3247.769287109375 1026.50390625 3247.998046875 1026.263793945313 3248.7890625 C 1026.195068359375 3248.947509765625 1026.195068359375 3249.140625 1026.01513671875 3249.140625 C 1025.930419921875 3249.119140625 1025.875244140625 3249.035888671875 1025.886596679688 3248.947509765625 L 1026.049438476563 3247.548583984375 C 1026.049438476563 3247.355712890625 1026.049438476563 3246.977294921875 1026.289306640625 3246.977294921875 C 1027.404174804688 3246.977294921875 1028.484375 3247.0390625 1030.301879882813 3247.0390625 C 1032.865478515625 3247.0390625 1034.160034179688 3246.977294921875 1034.442993164063 3246.977294921875 C 1034.55908203125 3246.9443359375 1034.683715820313 3246.974853515625 1034.771362304688 3247.0595703125 C 1034.859497070313 3247.14453125 1034.897216796875 3247.27001953125 1034.871704101563 3247.390625 L 1034.931518554688 3248.5693359375 C 1034.931518554688 3248.692626953125 1034.966186523438 3248.885986328125 1034.777221679688 3248.885986328125 C 1034.25439453125 3248.885986328125 1035.026000976563 3247.769287109375 1033.576904296875 3247.769287109375 L 1031.536376953125 3247.769287109375 C 1031.013427734375 3247.769287109375 1030.987670898438 3247.80419921875 1030.987670898438 3248.472900390625 L 1030.987670898438 3255.921142578125 C 1030.987670898438 3257.170166015625 1032.1279296875 3256.686767578125 1032.1279296875 3257.13525390625 C 1032.140869140625 3257.1748046875 1032.1328125 3257.21923828125 1032.106567382813 3257.2509765625 C 1032.080322265625 3257.282470703125 1032.039794921875 3257.298828125 1031.999389648438 3257.293701171875 C 1031.664794921875 3257.293701171875 1031.261962890625 3257.26708984375 1030.859008789063 3257.26708984375 C 1029.281372070313 3257.26708984375 1029.007202148438 3257.293701171875 1028.912841796875 3257.293701171875 C 1028.792602539063 3257.293701171875 1028.758422851563 3257.26708984375 1028.758422851563 3257.099853515625 C 1028.758422851563 3256.75732421875 1029.873046875 3256.9150390625 1029.873046875 3256.017578125 L 1029.873046875 3248.43701171875 C 1029.873046875 3248.340576171875 1029.907348632813 3247.769287109375 1029.684326171875 3247.769287109375 L 1027.438110351563 3247.769287109375 Z M 1004.59814453125 3259.80908203125 C 1004.941040039063 3259.80908203125 1005.24951171875 3259.84375 1005.558349609375 3259.84375 C 1005.841186523438 3259.84375 1006.081298828125 3259.80908203125 1006.364135742188 3259.80908203125 C 1006.5185546875 3259.80908203125 1006.5185546875 3259.84375 1006.5185546875 3259.8701171875 C 1006.5185546875 3260.064453125 1005.9013671875 3259.905517578125 1005.9013671875 3260.57421875 L 1005.9013671875 3262.482666015625 C 1005.9013671875 3262.61376953125 1005.9013671875 3262.6494140625 1006.021362304688 3262.6494140625 L 1009.167846679688 3262.6494140625 C 1009.262329101563 3262.6494140625 1009.262329101563 3262.420166015625 1009.262329101563 3262.394287109375 L 1009.262329101563 3260.57421875 C 1009.262329101563 3259.94091796875 1008.618896484375 3260.098876953125 1008.618896484375 3259.905517578125 C 1008.618896484375 3259.843505859375 1008.618896484375 3259.80908203125 1008.739135742188 3259.80908203125 C 1009.047729492188 3259.80908203125 1009.4765625 3259.843505859375 1009.630859375 3259.843505859375 C 1009.9736328125 3259.843505859375 1010.093627929688 3259.80908203125 1010.2822265625 3259.80908203125 C 1010.49658203125 3259.80908203125 1010.49658203125 3259.86962890625 1010.49658203125 3259.9404296875 C 1010.49658203125 3260.098876953125 1009.939453125 3259.9404296875 1009.939453125 3260.5732421875 L 1009.939453125 3265.26123046875 C 1009.939453125 3265.929443359375 1010.7109375 3265.76220703125 1010.7109375 3265.991455078125 C 1010.70947265625 3266.0400390625 1010.673217773438 3266.08154296875 1010.625366210938 3266.087890625 C 1010.376708984375 3266.087890625 1010.128051757813 3266.052734375 1009.819458007813 3266.052734375 C 1009.262329101563 3266.052734375 1009.013671875 3266.087890625 1008.859252929688 3266.087890625 C 1008.7734375 3266.087890625 1008.644897460938 3266.1142578125 1008.644897460938 3265.9560546875 C 1008.644897460938 3265.7626953125 1009.262329101563 3265.89453125 1009.262329101563 3265.3232421875 L 1009.262329101563 3263.185791015625 C 1009.262329101563 3263.062744140625 1009.296508789063 3262.965576171875 1009.167846679688 3262.965576171875 L 1006.021362304688 3262.965576171875 C 1005.9013671875 3262.965576171875 1005.9013671875 3263.02685546875 1005.9013671875 3263.124267578125 L 1005.9013671875 3265.3232421875 C 1005.9013671875 3265.929443359375 1006.732666015625 3265.736328125 1006.732666015625 3266.017822265625 C 1006.703125 3266.07470703125 1006.6396484375 3266.103515625 1006.57861328125 3266.08837890625 C 1006.484375 3266.087890625 1005.841186523438 3266.052734375 1005.378295898438 3266.052734375 C 1005.140380859375 3266.042724609375 1004.90234375 3266.05517578125 1004.666625976563 3266.087890625 C 1004.630737304688 3266.095703125 1004.593139648438 3266.08447265625 1004.567138671875 3266.057373046875 C 1004.541259765625 3266.031494140625 1004.5302734375 3265.9931640625 1004.537841796875 3265.9560546875 C 1004.538208007813 3265.701171875 1005.223876953125 3265.991455078125 1005.223876953125 3265.094482421875 L 1005.223876953125 3260.57421875 C 1005.223876953125 3259.905517578125 1004.477905273438 3260.099365234375 1004.477905273438 3259.905517578125 C 1004.477905273438 3259.80908203125 1004.538208007813 3259.80908203125 1004.59814453125 3259.80908203125 Z M 1016.45556640625 3263.63427734375 L 1016.45556640625 3260.76708984375 C 1016.45556640625 3259.84375 1015.649536132813 3260.2216796875 1015.649536132813 3259.8701171875 C 1015.669555664063 3259.835693359375 1015.704711914063 3259.8125 1015.743896484375 3259.80908203125 C 1016.052490234375 3259.80908203125 1016.395263671875 3259.84375 1016.72998046875 3259.84375 C 1016.884033203125 3259.84375 1017.047119140625 3259.80908203125 1017.192626953125 3259.80908203125 C 1017.222412109375 3259.8037109375 1017.252807617188 3259.81103515625 1017.27685546875 3259.8291015625 C 1017.301147460938 3259.847412109375 1017.317016601563 3259.875 1017.3212890625 3259.905517578125 C 1017.3212890625 3260.16015625 1016.823974609375 3259.94091796875 1016.823974609375 3260.76708984375 L 1016.823974609375 3263.50244140625 C 1016.93017578125 3264.201416015625 1016.717651367188 3264.910888671875 1016.247436523438 3265.427490234375 C 1015.777221679688 3265.944091796875 1015.1015625 3266.210205078125 1014.414916992188 3266.149169921875 C 1012.16845703125 3266.14990234375 1011.731201171875 3264.83935546875 1011.731201171875 3263.475830078125 L 1011.731201171875 3260.4775390625 C 1011.731201171875 3259.967529296875 1011.019775390625 3260.16015625 1011.019775390625 3259.87109375 C 1011.076049804688 3259.8330078125 1011.141235351563 3259.8115234375 1011.208251953125 3259.80908203125 C 1011.422607421875 3259.80908203125 1011.636962890625 3259.84423828125 1011.885620117188 3259.84423828125 C 1012.16845703125 3259.84423828125 1012.44287109375 3259.80908203125 1012.69140625 3259.80908203125 C 1012.75146484375 3259.80908203125 1012.965942382813 3259.7822265625 1012.965942382813 3259.87109375 C 1012.965942382813 3260.125732421875 1012.408447265625 3259.87109375 1012.408447265625 3260.54736328125 L 1012.408447265625 3263.731689453125 C 1012.366088867188 3264.296875 1012.568481445313 3264.852294921875 1012.961547851563 3265.25048828125 C 1013.354736328125 3265.6484375 1013.898803710938 3265.848876953125 1014.449096679688 3265.79833984375 C 1015.015991210938 3265.8583984375 1015.57763671875 3265.6455078125 1015.970336914063 3265.221435546875 C 1016.362915039063 3264.798095703125 1016.542114257813 3264.211669921875 1016.455322265625 3263.63427734375 Z M 1022.877075195313 3266.087890625 C 1022.3037109375 3266.04541015625 1021.802734375 3265.67431640625 1021.582641601563 3265.1298828125 L 1020.622436523438 3263.57275390625 C 1020.313598632813 3263.062744140625 1020.442260742188 3263.0888671875 1019.482177734375 3263.0888671875 C 1019.199340820313 3263.0888671875 1019.267700195313 3263.2470703125 1019.267700195313 3263.344482421875 L 1019.267700195313 3265.225830078125 C 1019.267700195313 3265.991455078125 1020.159545898438 3265.701171875 1020.159545898438 3266.017333984375 C 1020.159545898438 3266.1142578125 1020.065063476563 3266.087890625 1020.005126953125 3266.087890625 C 1019.910766601563 3266.087890625 1019.730712890625 3266.052734375 1019.01904296875 3266.052734375 C 1018.676025390625 3266.052734375 1018.367431640625 3266.087890625 1018.032958984375 3266.087890625 C 1018.007446289063 3266.090576171875 1017.981689453125 3266.08154296875 1017.963256835938 3266.0625 C 1017.944946289063 3266.0439453125 1017.935913085938 3266.017822265625 1017.938720703125 3265.991455078125 C 1017.938720703125 3265.76220703125 1018.581787109375 3265.8935546875 1018.581787109375 3265.225830078125 L 1018.581787109375 3260.705078125 C 1018.581787109375 3259.843505859375 1017.844482421875 3260.2216796875 1017.844482421875 3259.905517578125 C 1017.844482421875 3259.843505859375 1017.904541015625 3259.80908203125 1017.998901367188 3259.80908203125 C 1018.183837890625 3259.8310546875 1018.369995117188 3259.842041015625 1018.556030273438 3259.843505859375 C 1019.044799804688 3259.843505859375 1019.542114257813 3259.80908203125 1019.970825195313 3259.80908203125 C 1020.125 3259.80908203125 1022.045776367188 3259.6240234375 1022.045776367188 3261.33837890625 C 1022.011596679688 3262.033447265625 1021.571044921875 3262.638671875 1020.931030273438 3262.86865234375 L 1022.380004882813 3265.12939453125 C 1022.997192382813 3266.087890625 1023.434692382813 3265.76220703125 1023.434692382813 3265.991455078125 C 1023.2607421875 3266.07470703125 1023.067993164063 3266.108154296875 1022.876953125 3266.08740234375 Z M 1021.393920898438 3261.53271484375 C 1021.393920898438 3260.450927734375 1020.596557617188 3260.099365234375 1019.730712890625 3260.099365234375 C 1019.422119140625 3260.099365234375 1019.267700195313 3260.064453125 1019.267700195313 3260.416015625 L 1019.267700195313 3262.67626953125 C 1019.55029296875 3262.835205078125 1019.879760742188 3262.88134765625 1020.193725585938 3262.808349609375 C 1020.52587890625 3262.830322265625 1020.850830078125 3262.70166015625 1021.08203125 3262.45556640625 C 1021.313110351563 3262.2099609375 1021.42724609375 3261.872314453125 1021.393798828125 3261.53271484375 Z M 1028.955810546875 3260.319091796875 C 1029.05029296875 3260.319091796875 1029.05029296875 3260.450927734375 1029.08447265625 3261.022705078125 C 1029.162231445313 3261.2734375 1029.150024414063 3261.545166015625 1029.05029296875 3261.788330078125 C 1028.9384765625 3261.73095703125 1028.85888671875 3261.62353515625 1028.8359375 3261.497802734375 C 1028.457275390625 3260.564697265625 1027.566162109375 3259.959228515625 1026.581176757813 3259.967041015625 C 1024.917846679688 3259.967529296875 1024.11181640625 3261.11962890625 1024.11181640625 3262.772705078125 C 1024.11181640625 3264.33837890625 1024.977783203125 3265.859130859375 1026.615234375 3265.859130859375 C 1027.554931640625 3265.9052734375 1028.443481445313 3265.419189453125 1028.930053710938 3264.593505859375 C 1028.947998046875 3264.5322265625 1028.992431640625 3264.48388671875 1029.05029296875 3264.461181640625 C 1029.100830078125 3264.464599609375 1029.1416015625 3264.505859375 1029.144165039063 3264.55859375 L 1028.930053710938 3265.44677734375 C 1028.930053710938 3265.481689453125 1028.312866210938 3266.14990234375 1026.392456054688 3266.14990234375 C 1025.577270507813 3266.19775390625 1024.780517578125 3265.887939453125 1024.199096679688 3265.30078125 C 1023.61767578125 3264.713134765625 1023.3056640625 3263.900146484375 1023.340209960938 3263.0634765625 C 1023.304077148438 3262.18896484375 1023.616455078125 3261.33837890625 1024.205078125 3260.706298828125 C 1024.7939453125 3260.074462890625 1025.608642578125 3259.715087890625 1026.4609375 3259.71240234375 C 1027.281860351563 3259.716796875 1028.0849609375 3259.9609375 1028.775634765625 3260.416015625 C 1028.835571289063 3260.4150390625 1028.895751953125 3260.319091796875 1028.955810546875 3260.319091796875 Z M 1000.8857421875 3244.03173828125 C 1000.859619140625 3244.256591796875 1000.748779296875 3244.46142578125 1000.5771484375 3244.60400390625 C 1000.38671875 3244.44189453125 1000.25634765625 3244.21826171875 1000.208374023438 3243.97021484375 L 997.7991943359375 3238.13916015625 C 997.550537109375 3237.53271484375 997.0618896484375 3237.7255859375 997.0618896484375 3237.497314453125 C 997.0621337890625 3237.45849609375 997.079833984375 3237.421875 997.10986328125 3237.3974609375 C 997.1400146484375 3237.37353515625 997.17919921875 3237.365478515625 997.21630859375 3237.375 C 997.490478515625 3237.37451171875 997.7991943359375 3237.409912109375 998.1077880859375 3237.409912109375 C 998.3565673828125 3237.409912109375 998.7252197265625 3237.37451171875 998.8536376953125 3237.37451171875 C 998.9207763671875 3237.36669921875 998.9844970703125 3237.40673828125 999.008056640625 3237.470947265625 C 998.8125 3237.57958984375 998.66748046875 3237.7626953125 998.60498046875 3237.981201171875 C 998.6171875 3238.112548828125 998.64892578125 3238.2392578125 998.699462890625 3238.359375 L 1000.39697265625 3242.50146484375 C 1000.448486328125 3242.7763671875 1000.576538085938 3243.030029296875 1000.765502929688 3243.231689453125 C 1000.857421875 3243.173583984375 1000.924560546875 3243.0830078125 1000.9541015625 3242.9765625 L 1002.651977539063 3238.676025390625 C 1002.7421875 3238.457275390625 1002.783203125 3238.218994140625 1002.771850585938 3237.981201171875 C 1002.771850585938 3237.53271484375 1002.154541015625 3237.72607421875 1002.154541015625 3237.497314453125 C 1002.154907226563 3237.45849609375 1002.172485351563 3237.421875 1002.20263671875 3237.3974609375 C 1002.232788085938 3237.37353515625 1002.27197265625 3237.365478515625 1002.308837890625 3237.375 C 1002.523193359375 3237.375 1002.737670898438 3237.409912109375 1002.92626953125 3237.409912109375 C 1003.42333984375 3237.409912109375 1003.54345703125 3237.375 1003.697875976563 3237.375 C 1003.734741210938 3237.365478515625 1003.774169921875 3237.37353515625 1003.804077148438 3237.3974609375 C 1003.834106445313 3237.421875 1003.85205078125 3237.45849609375 1003.85205078125 3237.497802734375 C 1003.85205078125 3237.72607421875 1003.577880859375 3237.470947265625 1003.294921875 3238.13916015625 L 1000.8857421875 3244.03173828125 Z M 996.104248046875 3244.445068359375 C 995.3624267578125 3244.445068359375 994.6219482421875 3244.38330078125 993.881103515625 3244.40966796875 C 993.5106201171875 3244.40966796875 993.0784912109375 3244.445068359375 992.7083740234375 3244.445068359375 C 992.615478515625 3244.445068359375 992.5537109375 3244.40966796875 992.5537109375 3244.348388671875 C 992.6597900390625 3244.210693359375 992.81298828125 3244.119140625 992.982421875 3244.093017578125 C 993.2354736328125 3243.877197265625 993.3438720703125 3243.53076171875 993.26025390625 3243.20458984375 L 993.26025390625 3238.64892578125 C 993.26025390625 3238.200927734375 993.26025390625 3237.7255859375 992.7354736328125 3237.629150390625 C 992.64306640625 3237.629150390625 992.4268798828125 3237.59423828125 992.4268798828125 3237.470947265625 C 992.4268798828125 3237.409423828125 992.4886474609375 3237.37451171875 992.769775390625 3237.37451171875 C 994.6219482421875 3237.37451171875 995.116455078125 3237.409423828125 995.513427734375 3237.409423828125 C 995.7296142578125 3237.409423828125 996.5938720703125 3237.37451171875 996.904052734375 3237.37451171875 C 996.9984130859375 3237.37451171875 996.9984130859375 3237.470947265625 996.9984130859375 3237.567626953125 C 996.9984130859375 3238.675537109375 996.8697509765625 3238.7724609375 996.809814453125 3238.7724609375 C 996.563720703125 3238.7724609375 996.7498779296875 3238.2978515625 996.563720703125 3238.078125 C 996.3477783203125 3237.7255859375 995.3282470703125 3237.78759765625 994.927001953125 3237.78759765625 C 994.0010986328125 3237.78759765625 994.0318603515625 3237.75244140625 994.0318603515625 3238.420654296875 L 994.0318603515625 3240.267578125 C 994.0318603515625 3240.619140625 994.0010986328125 3240.619140625 994.3748779296875 3240.619140625 L 995.4241943359375 3240.619140625 C 996.44384765625 3240.619140625 996.1959228515625 3239.828125 996.4129638671875 3239.828125 C 996.454833984375 3239.83544921875 996.4918212890625 3239.86083984375 996.5150146484375 3239.89794921875 C 996.5380859375 3239.93359375 996.545654296875 3239.978515625 996.5355224609375 3240.021484375 C 996.5355224609375 3240.364013671875 996.50537109375 3240.689453125 996.50537109375 3241.006103515625 C 996.50537109375 3241.261474609375 996.5355224609375 3241.542724609375 996.5355224609375 3241.7978515625 C 996.5394287109375 3241.832763671875 996.5277099609375 3241.86767578125 996.504150390625 3241.89306640625 C 996.4805908203125 3241.918212890625 996.447021484375 3241.931884765625 996.4129638671875 3241.93017578125 C 996.104248046875 3241.93017578125 996.44384765625 3241.068115234375 995.64111328125 3241.068115234375 L 994.189453125 3241.068115234375 C 994.0042724609375 3241.068115234375 994.0352783203125 3241.225830078125 994.0352783203125 3241.38525390625 L 994.0352783203125 3243.205078125 C 994.0352783203125 3243.803466796875 993.9427490234375 3244.0576171875 994.7449951171875 3244.0576171875 C 997.0018310546875 3244.0576171875 997.3359375 3243.01123046875 997.4647216796875 3243.01123046875 C 997.5247802734375 3243.01123046875 997.5247802734375 3243.1083984375 997.5247802734375 3243.134765625 C 997.4796142578125 3243.498291015625 997.316650390625 3243.835693359375 997.0618896484375 3244.093505859375 C 996.833251953125 3244.38720703125 996.4622802734375 3244.52294921875 996.1041259765625 3244.445068359375 Z M 1004.100708007813 3256.686767578125 C 1004.060546875 3257.0244140625 1003.89501953125 3257.33349609375 1003.638061523438 3257.548828125 C 1003.358154296875 3257.316162109375 1003.169555664063 3256.98876953125 1003.106323242188 3256.625 L 999.625244140625 3248.094970703125 C 999.2823486328125 3247.232421875 998.5107421875 3247.488037109375 998.5107421875 3247.16259765625 C 998.5118408203125 3247.107421875 998.5361328125 3247.055419921875 998.5771484375 3247.02001953125 C 998.6182861328125 3246.984619140625 998.672119140625 3246.96923828125 998.7252197265625 3246.977783203125 C 999.162353515625 3246.977783203125 999.5911865234375 3247.0390625 1000.019775390625 3247.0390625 C 1000.39697265625 3247.0390625 1000.945678710938 3246.977783203125 1001.134399414063 3246.977783203125 C 1001.21728515625 3246.96875 1001.29541015625 3247.019287109375 1001.322875976563 3247.10009765625 C 1001.3486328125 3247.329345703125 1000.765502929688 3247.329345703125 1000.765502929688 3247.86572265625 C 1000.773071289063 3248.062255859375 1000.813598632813 3248.255615234375 1000.885498046875 3248.4375 L 1003.355102539063 3254.426025390625 C 1003.697875976563 3255.2265625 1003.757934570313 3255.543701171875 1003.912353515625 3255.543701171875 C 1004.067016601563 3255.462646484375 1004.1708984375 3255.30712890625 1004.186645507813 3255.130126953125 L 1006.630004882813 3248.885986328125 C 1006.780395507813 3248.581298828125 1006.854125976563 3248.242431640625 1006.844360351563 3247.901123046875 C 1006.844360351563 3247.232421875 1005.91845703125 3247.487548828125 1005.91845703125 3247.16259765625 C 1005.913696289063 3247.10546875 1005.936279296875 3247.05029296875 1005.97900390625 3247.01318359375 C 1006.021606445313 3246.97607421875 1006.078857421875 3246.963134765625 1006.132568359375 3246.977783203125 C 1006.44140625 3246.977294921875 1006.75 3247.0390625 1007.0927734375 3247.0390625 C 1007.770141601563 3247.0390625 1007.958984375 3246.977294921875 1008.173461914063 3246.977294921875 C 1008.230590820313 3246.963134765625 1008.29150390625 3246.975341796875 1008.339477539063 3247.010986328125 C 1008.387451171875 3247.0458984375 1008.417602539063 3247.101806640625 1008.421875 3247.16259765625 C 1008.421875 3247.487548828125 1008.01904296875 3247.10009765625 1007.616088867188 3248.094482421875 L 1004.100708007813 3256.686767578125 Z M 986.4732666015625 3243.803466796875 L 986.163818359375 3242.087890625 C 986.1021728515625 3241.833251953125 986.163818359375 3241.674560546875 986.2872314453125 3241.674560546875 C 986.4732666015625 3241.674560546875 986.4732666015625 3241.833251953125 986.5341796875 3242.12353515625 C 986.9017333984375 3243.33935546875 988.0107421875 3244.1572265625 989.251220703125 3244.128662109375 C 990.4857177734375 3244.128662109375 991.6895751953125 3243.425048828125 991.6895751953125 3242.026611328125 C 991.6895751953125 3239.44091796875 986.441650390625 3240.875 986.441650390625 3237.409912109375 C 986.441650390625 3235.720947265625 987.83056640625 3234.885498046875 989.31298828125 3234.885498046875 C 990.0614013671875 3234.856201171875 990.8050537109375 3235.022705078125 991.4736328125 3235.36865234375 C 991.5970458984375 3235.369384765625 991.6278076171875 3235.2109375 991.75146484375 3235.2109375 C 991.7972412109375 3235.21044921875 991.8411865234375 3235.230224609375 991.8709716796875 3235.26611328125 C 991.901123046875 3235.3017578125 991.9136962890625 3235.34912109375 991.9056396484375 3235.395751953125 L 992.0909423828125 3237.216064453125 C 992.121826171875 3237.339111328125 992.0909423828125 3237.43603515625 991.9674072265625 3237.43603515625 C 991.8094482421875 3237.359375 991.703369140625 3237.20166015625 991.689697265625 3237.0224609375 C 991.342041015625 3235.9423828125 990.327880859375 3235.238037109375 989.220458984375 3235.30810546875 C 988.201904296875 3235.307373046875 987.1207275390625 3235.808837890625 987.1207275390625 3237.0224609375 C 987.1207275390625 3239.5380859375 992.3687744140625 3238.078125 992.3687744140625 3241.73681640625 C 992.3687744140625 3242.888671875 991.5970458984375 3244.5419921875 988.664794921875 3244.5419921875 C 987.7069091796875 3244.541015625 986.5032958984375 3244.0576171875 986.4732666015625 3243.802978515625 Z M 1001.331420898438 3266.14990234375 C 1000.520263671875 3266.19189453125 999.72900390625 3265.8798828125 999.153076171875 3265.292724609375 C 998.5767822265625 3264.705078125 998.268798828125 3263.8955078125 998.30517578125 3263.062744140625 C 998.2628173828125 3262.193603515625 998.5682373046875 3261.343994140625 999.1512451171875 3260.711669921875 C 999.7337646484375 3260.07861328125 1000.543212890625 3259.718017578125 1001.391723632813 3259.71240234375 C 1002.212768554688 3259.71630859375 1003.015502929688 3259.960693359375 1003.706420898438 3260.416015625 C 1003.775756835938 3260.37841796875 1003.847045898438 3260.34619140625 1003.920776367188 3260.319091796875 C 1004.015014648438 3260.319091796875 1004.015014648438 3260.450927734375 1004.049438476563 3261.022705078125 C 1004.049438476563 3261.497314453125 1004.1435546875 3261.788330078125 1003.9892578125 3261.788330078125 C 1003.89404296875 3261.718017578125 1003.826904296875 3261.6142578125 1003.800659179688 3261.497314453125 C 1003.4072265625 3260.5771484375 1002.525146484375 3259.978759765625 1001.5458984375 3259.967041015625 C 999.848388671875 3259.967529296875 999.042236328125 3261.119140625 999.042236328125 3262.772705078125 C 999.042236328125 3264.33837890625 999.9083251953125 3265.859130859375 1001.5458984375 3265.859130859375 C 1002.494750976563 3265.9052734375 1003.393432617188 3265.420654296875 1003.895141601563 3264.592529296875 C 1003.895751953125 3264.52392578125 1003.94775390625 3264.46630859375 1004.015014648438 3264.460693359375 C 1004.052978515625 3264.4765625 1004.0771484375 3264.515869140625 1004.074951171875 3264.55810546875 L 1003.895141601563 3265.446533203125 C 1003.860595703125 3265.48095703125 1003.277587890625 3266.149169921875 1001.331420898438 3266.149169921875 Z M 991.7197265625 3257.267578125 C 991.6270751953125 3257.267578125 990.85546875 3257.293701171875 990.42333984375 3257.293701171875 C 989.6514892578125 3257.293701171875 989.1884765625 3257.267578125 988.5714111328125 3257.267578125 C 988.0467529296875 3257.267578125 987.5518798828125 3257.32861328125 987.0281982421875 3257.32861328125 C 986.935546875 3257.32861328125 986.6268310546875 3257.32861328125 986.6268310546875 3257.13525390625 C 986.6268310546875 3256.660400390625 987.741455078125 3256.84521484375 987.741455078125 3256.115478515625 C 987.628173828125 3255.490234375 987.441650390625 3254.8818359375 987.185546875 3254.3037109375 L 986.568603515625 3252.7119140625 C 986.5252685546875 3252.29052734375 986.1785888671875 3251.9716796875 985.76611328125 3251.972412109375 L 981.6290283203125 3251.973388671875 C 981.27392578125 3251.8876953125 980.9072265625 3252.056396484375 980.7340087890625 3252.386474609375 L 979.5604248046875 3255.0947265625 C 979.466552734375 3255.304931640625 979.414306640625 3255.532958984375 979.4068603515625 3255.762939453125 C 979.4068603515625 3257.100341796875 980.7340087890625 3256.528564453125 980.7340087890625 3257.038330078125 C 980.7340087890625 3257.39013671875 980.487060546875 3257.32861328125 980.2401123046875 3257.32861328125 C 979.714599609375 3257.32861328125 979.18994140625 3257.267578125 978.6654052734375 3257.267578125 C 978.1712646484375 3257.267578125 977.646728515625 3257.32861328125 977.15283203125 3257.32861328125 C 977.1026611328125 3257.319580078125 977.057861328125 3257.290771484375 977.02880859375 3257.248046875 C 976.9998779296875 3257.20458984375 976.9888916015625 3257.151611328125 976.99853515625 3257.100341796875 C 976.99853515625 3256.721923828125 977.8626708984375 3257.038330078125 978.3565673828125 3255.921142578125 L 982.8328857421875 3246.080322265625 C 983.9473876953125 3243.62646484375 984.0057373046875 3243.310546875 984.2528076171875 3243.310546875 C 984.47509765625 3243.494140625 984.6192626953125 3243.759033203125 984.6539306640625 3244.049560546875 L 988.5428466796875 3254.013916015625 C 988.7864990234375 3254.7734375 989.0968017578125 3255.509765625 989.469970703125 3256.21240234375 C 989.6572265625 3256.578125 990.023681640625 3256.810791015625 990.426513671875 3256.81884765625 C 990.7352294921875 3256.81884765625 990.9820556640625 3256.43212890625 990.9820556640625 3255.798828125 L 990.9820556640625 3248.534423828125 C 990.9820556640625 3247.040283203125 989.8402099609375 3247.5146484375 989.8402099609375 3247.10107421875 C 989.8472900390625 3247.058349609375 989.8712158203125 3247.021240234375 989.90625 3246.99755859375 C 989.9417724609375 3246.974853515625 989.9847412109375 3246.967529296875 990.0252685546875 3246.978759765625 C 990.454345703125 3246.978271484375 990.8896484375 3247.040283203125 991.2908935546875 3247.040283203125 C 992.2479248046875 3247.040283203125 993.142822265625 3246.978271484375 994.37744140625 3246.978271484375 C 996.8765869140625 3246.978271484375 999.3458251953125 3248.921875 999.3458251953125 3251.6298828125 C 999.3458251953125 3254.972412109375 997.8026123046875 3257.294189453125 993.8836669921875 3257.294189453125 C 993.13916015625 3257.293701171875 992.431884765625 3257.26708984375 991.7196044921875 3257.26708984375 Z M 992.0899658203125 3248.252685546875 L 992.0899658203125 3255.191650390625 C 992.054931640625 3255.5458984375 992.086181640625 3255.90380859375 992.182373046875 3256.246826171875 C 992.82275390625 3256.707763671875 993.5921630859375 3256.942138671875 994.3740234375 3256.9150390625 C 996.380126953125 3256.9150390625 998.2965087890625 3255.798828125 998.2965087890625 3252.4208984375 C 998.39501953125 3251.07470703125 997.9285888671875 3249.748046875 997.0145263671875 3248.776123046875 C 996.1007080078125 3247.80322265625 994.82568359375 3247.27685546875 993.509765625 3247.328857421875 C 992.1513671875 3247.329345703125 992.0888671875 3247.583984375 992.0888671875 3248.252685546875 Z M 983.6319580078125 3246.080322265625 L 981.5023193359375 3250.768798828125 C 981.3790283203125 3251.049560546875 981.5023193359375 3251.119873046875 981.7491455078125 3251.119873046875 L 985.453125 3251.119873046875 C 985.8818359375 3251.119873046875 985.8544921875 3250.988037109375 985.76171875 3250.732666015625 L 983.9405517578125 3246.080322265625 C 983.847900390625 3245.824951171875 983.7554931640625 3245.824951171875 983.6319580078125 3246.080322265625 Z M 1054.814086914063 3247.390625 L 1054.874145507813 3248.56982421875 C 1054.874145507813 3248.692626953125 1054.908447265625 3248.885986328125 1054.7197265625 3248.885986328125 C 1054.19677734375 3248.885986328125 1054.96826171875 3247.769287109375 1053.519409179688 3247.769287109375 L 1051.47900390625 3247.769287109375 C 1050.921752929688 3247.769287109375 1050.921752929688 3247.80419921875 1050.921752929688 3248.472900390625 L 1050.921752929688 3255.921630859375 C 1050.921752929688 3257.1708984375 1052.070190429688 3256.686767578125 1052.070190429688 3257.13525390625 C 1052.083374023438 3257.17529296875 1052.075073242188 3257.21923828125 1052.049072265625 3257.25146484375 C 1052.022827148438 3257.283935546875 1051.982177734375 3257.2998046875 1051.941650390625 3257.293701171875 C 1051.607421875 3257.293701171875 1051.204467773438 3257.267578125 1050.801635742188 3257.267578125 C 1049.223999023438 3257.267578125 1048.949584960938 3257.293701171875 1048.855224609375 3257.293701171875 C 1048.735229492188 3257.293701171875 1048.701049804688 3257.267578125 1048.701049804688 3257.100341796875 C 1048.701049804688 3256.75732421875 1049.815551757813 3256.91552734375 1049.815551757813 3256.01806640625 L 1049.815551757813 3248.4375 C 1049.815551757813 3248.340576171875 1049.84130859375 3247.769287109375 1049.626953125 3247.769287109375 L 1046.694702148438 3247.769287109375 C 1045.82861328125 3247.769287109375 1045.863159179688 3248.094970703125 1045.863159179688 3248.595703125 C 1045.863159179688 3248.7626953125 1045.983154296875 3249.395751953125 1045.708740234375 3249.395751953125 C 1045.54833984375 3249.29833984375 1045.435913085938 3249.135498046875 1045.400024414063 3248.947509765625 C 1045.002075195313 3247.8212890625 1043.902221679688 3247.12255859375 1042.7421875 3247.2587890625 C 1041.601928710938 3247.2587890625 1040.427368164063 3247.830810546875 1040.427368164063 3249.176025390625 C 1040.427368164063 3251.911376953125 1046.171752929688 3250.31884765625 1046.171752929688 3254.330078125 C 1046.171752929688 3255.57861328125 1045.340087890625 3257.425048828125 1042.125 3257.425048828125 C 1041.078979492188 3257.425048828125 1039.784301757813 3256.880126953125 1039.7158203125 3256.590087890625 L 1039.38134765625 3254.717041015625 C 1039.3212890625 3254.426025390625 1039.38134765625 3254.268310546875 1039.53564453125 3254.268310546875 C 1039.7158203125 3254.268310546875 1039.7158203125 3254.4619140625 1039.81005859375 3254.7431640625 C 1040.199829101563 3256.080078125 1041.41650390625 3256.98193359375 1042.7763671875 3256.941650390625 C 1044.131103515625 3256.941650390625 1045.434326171875 3256.176513671875 1045.434326171875 3254.620361328125 C 1045.434326171875 3251.815185546875 1039.68994140625 3253.38037109375 1039.68994140625 3249.589111328125 C 1039.68994140625 3247.742919921875 1041.198974609375 3246.845458984375 1042.836547851563 3246.845458984375 C 1043.656127929688 3246.82275390625 1044.469482421875 3246.99755859375 1045.21142578125 3247.356201171875 C 1045.377075195313 3247.2177734375 1045.551879882813 3247.091552734375 1045.734497070313 3246.977783203125 C 1046.849243164063 3246.977783203125 1048.4267578125 3247.040283203125 1050.244140625 3247.040283203125 C 1052.8076171875 3247.040283203125 1054.102294921875 3246.977783203125 1054.385131835938 3246.977783203125 C 1054.7197265625 3246.977294921875 1054.779541015625 3247.07470703125 1054.813842773438 3247.390625 Z M 1013.38623046875 3224.87646484375 L 1013.38623046875 3222.96826171875 L 1016.001098632813 3222.96826171875 L 1016.001098632813 3222.79296875 C 1016.001098632813 3220.893798828125 1015.15234375 3219.494873046875 1009.287841796875 3220.541259765625 L 999.65966796875 3222.318115234375 L 994.1158447265625 3230.250244140625 L 1007.418823242188 3227.814208984375 C 1011.405517578125 3227.111083984375 1014.903686523438 3226.961181640625 1016.001098632813 3230.232666015625 L 1016.001098632813 3224.87646484375 L 1013.38623046875 3224.87646484375 Z M 1017.818603515625 3230.232666015625 C 1017.818603515625 3227.638916015625 1019.302001953125 3225.862060546875 1022.319702148438 3222.739990234375 L 1024.45458984375 3220.541259765625 L 1034.194458007813 3222.318115234375 L 1039.750122070313 3230.241943359375 L 1026.975341796875 3227.9638671875 C 1022.645629882813 3227.111083984375 1018.97607421875 3226.811767578125 1017.818603515625 3230.232666015625 Z M 1018.358764648438 3222.96826171875 C 1019.318969726563 3220.832275390625 1021.376708984375 3218.897216796875 1022.559814453125 3217.68310546875 L 1023.400390625 3216.803466796875 C 1026.975341796875 3213.1103515625 1027.661376953125 3211.580078125 1027.884155273438 3209.03857421875 C 1028.024169921875 3209.335693359375 1028.108642578125 3209.657958984375 1028.1328125 3209.988525390625 C 1028.330078125 3211.3623046875 1028.185546875 3212.7666015625 1027.712890625 3214.068603515625 C 1026.975341796875 3216.31103515625 1025.226318359375 3218.096435546875 1022.963012695313 3220.435302734375 L 1020.502197265625 3222.96826171875 L 1018.358764648438 3222.96826171875 Z M 1020.43359375 3192.02099609375 C 1020.43359375 3191.994140625 1020.493774414063 3191.986083984375 1020.493774414063 3192.02099609375 L 1020.493774414063 3194.9580078125 C 1020.493774414063 3197.62353515625 1017.175659179688 3200.69189453125 1015.855346679688 3202.046875 L 1011.002685546875 3207.076904296875 C 1009.322265625 3208.809814453125 1005.95263671875 3212.2314453125 1007.367431640625 3215.529052734375 C 1007.418823242188 3215.64306640625 1007.461547851563 3215.73974609375 1007.28173828125 3215.6083984375 C 1006.921508789063 3215.34423828125 1006.372924804688 3214.42138671875 1006.22705078125 3212.73193359375 C 1005.969970703125 3209.724853515625 1007.958984375 3207.024658203125 1010.4111328125 3204.491455078125 L 1015.049560546875 3199.70751953125 C 1019.747680664063 3194.852783203125 1020.201904296875 3193.999267578125 1020.43359375 3192.02099609375 Z M 1015.855346679688 3207.08544921875 C 1017.175659179688 3205.7314453125 1020.493774414063 3202.662109375 1020.493774414063 3199.997314453125 L 1020.493774414063 3197.0595703125 C 1020.493774414063 3197.025146484375 1020.43359375 3197.033203125 1020.43359375 3197.0595703125 C 1020.2021484375 3199.038330078125 1019.747802734375 3199.891845703125 1015.04931640625 3204.74658203125 L 1010.745483398438 3209.1962890625 C 1009.176391601563 3210.8056640625 1007.744384765625 3212.494140625 1007.81298828125 3215.229248046875 C 1007.847534179688 3216.900390625 1008.67041015625 3218.290283203125 1009.896728515625 3218.614990234375 C 1010.402465820313 3218.729736328125 1010.3681640625 3218.659423828125 1010.248046875 3218.60693359375 C 1008.51611328125 3217.762451171875 1008.636108398438 3214.53466796875 1011.439819335938 3211.6416015625 L 1015.855346679688 3207.08544921875 Z M 1010.453857421875 3202.6357421875 C 1006.878662109375 3206.328857421875 1006.184326171875 3207.85107421875 1005.969970703125 3210.39208984375 C 1005.828979492188 3210.098388671875 1005.744506835938 3209.778564453125 1005.72119140625 3209.45166015625 C 1005.5244140625 3208.07373046875 1005.669067382813 3206.66748046875 1006.141235351563 3205.36181640625 C 1006.878662109375 3203.119140625 1008.619262695313 3201.333740234375 1010.890991210938 3198.994873046875 L 1015.04931640625 3194.703369140625 C 1019.747802734375 3189.8486328125 1020.2021484375 3188.99560546875 1020.43359375 3187.0078125 C 1020.43359375 3186.990478515625 1020.493774414063 3186.98193359375 1020.493774414063 3187.0078125 L 1020.493774414063 3189.953857421875 C 1020.493774414063 3192.618896484375 1017.175659179688 3195.688232421875 1015.855346679688 3197.042724609375 L 1010.453857421875 3202.6357421875 Z M 1017.878784179688 3227.796142578125 C 1017.878784179688 3227.8232421875 1017.81884765625 3227.8232421875 1017.81884765625 3227.796142578125 L 1017.81884765625 3224.87646484375 L 1019.001953125 3224.87646484375 C 1018.394653320313 3225.738037109375 1018.008178710938 3226.742431640625 1017.878662109375 3227.796142578125 Z M 1017.887451171875 3222.96826171875 C 1017.887451171875 3222.995361328125 1017.827270507813 3222.995361328125 1017.827270507813 3222.96826171875 L 1017.827270507813 3219.996337890625 C 1017.827270507813 3217.75341796875 1019.95361328125 3215.334716796875 1022.05419921875 3213.180419921875 L 1023.426147460938 3211.77294921875 C 1024.532104492188 3210.6298828125 1027.892700195313 3207.2001953125 1026.48681640625 3203.902099609375 C 1026.435180664063 3203.796630859375 1026.392456054688 3203.699951171875 1026.572387695313 3203.831787109375 C 1026.932495117188 3204.095947265625 1027.47265625 3205.018798828125 1027.61865234375 3206.707763671875 C 1027.884399414063 3209.71533203125 1025.89501953125 3212.40673828125 1023.443115234375 3214.939208984375 L 1022.174072265625 3216.249755859375 C 1019.130493164063 3219.3984375 1018.118530273438 3220.8046875 1017.88720703125 3222.96826171875 Z M 1017.887451171875 3217.805908203125 C 1017.878784179688 3217.832275390625 1017.81884765625 3217.832275390625 1017.81884765625 3217.805908203125 L 1017.81884765625 3214.78076171875 C 1017.81884765625 3212.65283203125 1019.87646484375 3210.3486328125 1020.87109375 3209.31982421875 L 1022.41455078125 3207.736572265625 C 1025.209228515625 3204.843017578125 1025.338012695313 3201.61572265625 1023.606079101563 3200.771728515625 C 1023.486083984375 3200.718505859375 1023.451904296875 3200.6484375 1023.957641601563 3200.762451171875 C 1025.183715820313 3201.08837890625 1025.998168945313 3202.477294921875 1026.041137695313 3204.1484375 C 1026.10986328125 3206.883544921875 1024.695068359375 3208.563232421875 1023.134521484375 3210.17333984375 L 1021.8828125 3211.4658203125 C 1019.267700195313 3214.1650390625 1018.118530273438 3215.73974609375 1017.88720703125 3217.805908203125 Z M 1039.261596679688 3224.270263671875 C 1039.551635742188 3224.26416015625 1039.830932617188 3224.38232421875 1040.033203125 3224.595458984375 C 1040.244140625 3224.809326171875 1040.36181640625 3225.100830078125 1040.359008789063 3225.404296875 C 1040.3544921875 3226.025390625 1039.867065429688 3226.529541015625 1039.261596679688 3226.5390625 C 1038.934814453125 3226.548828125 1038.622924804688 3226.39892578125 1038.421264648438 3226.134765625 C 1038.250610351563 3225.932373046875 1038.156127929688 3225.673095703125 1038.155639648438 3225.404296875 C 1038.155029296875 3225.10400390625 1038.271240234375 3224.814697265625 1038.478637695313 3224.6015625 C 1038.686279296875 3224.388671875 1038.9677734375 3224.269775390625 1039.261352539063 3224.269775390625 Z M 1039.261596679688 3224.393798828125 C 1038.998901367188 3224.386474609375 1038.746459960938 3224.4951171875 1038.567016601563 3224.6923828125 C 1038.189575195313 3225.08837890625 1038.189575195313 3225.720947265625 1038.567016601563 3226.1171875 C 1038.882202148438 3226.43212890625 1039.363891601563 3226.492431640625 1039.743896484375 3226.264892578125 C 1040.124145507813 3226.037109375 1040.309326171875 3225.576904296875 1040.196655273438 3225.141357421875 C 1040.084350585938 3224.70458984375 1039.70166015625 3224.398193359375 1039.261352539063 3224.393798828125 Z M 1039.398681640625 3225.39599609375 L 1039.638916015625 3225.77392578125 L 1039.673217773438 3225.818115234375 C 1039.71337890625 3225.90478515625 1039.788696289063 3225.968994140625 1039.879150390625 3225.99365234375 L 1039.913208007813 3225.99365234375 C 1039.920166015625 3225.9931640625 1039.927612304688 3225.99560546875 1039.932495117188 3226.00048828125 C 1039.937133789063 3226.005615234375 1039.939819335938 3226.012939453125 1039.939208984375 3226.020263671875 C 1039.939208984375 3226.05517578125 1039.887573242188 3226.07275390625 1039.793334960938 3226.07275390625 C 1039.668701171875 3226.0615234375 1039.55810546875 3225.9853515625 1039.501831054688 3225.870849609375 L 1039.270385742188 3225.51025390625 L 1039.253173828125 3225.492431640625 C 1039.244873046875 3225.467041015625 1039.218994140625 3225.45166015625 1039.193237304688 3225.45751953125 L 1039.056030273438 3225.457275390625 L 1039.056030273438 3225.80908203125 C 1039.05029296875 3225.857421875 1039.059204101563 3225.906982421875 1039.081665039063 3225.949951171875 C 1039.115844726563 3225.984130859375 1039.162353515625 3226.00341796875 1039.210327148438 3226.002197265625 C 1039.24462890625 3226.002197265625 1039.261840820313 3226.01123046875 1039.261840820313 3226.02880859375 C 1039.262329101563 3226.03955078125 1039.257446289063 3226.05078125 1039.248779296875 3226.057861328125 C 1039.240478515625 3226.064697265625 1039.229248046875 3226.067138671875 1039.218994140625 3226.064208984375 L 1039.158935546875 3226.064208984375 C 1039.119506835938 3226.05517578125 1039.078979492188 3226.052490234375 1039.038818359375 3226.05517578125 L 1038.901611328125 3226.05517578125 C 1038.875854492188 3226.0546875 1038.849853515625 3226.057861328125 1038.82470703125 3226.064208984375 L 1038.781616210938 3226.064208984375 C 1038.77099609375 3226.067138671875 1038.760009765625 3226.064697265625 1038.75146484375 3226.057861328125 C 1038.7431640625 3226.05078125 1038.738647460938 3226.03955078125 1038.738647460938 3226.02880859375 C 1038.744018554688 3226.013916015625 1038.757568359375 3226.00341796875 1038.77294921875 3226.002685546875 C 1038.813354492188 3225.994384765625 1038.847778320313 3225.968505859375 1038.867431640625 3225.932373046875 C 1038.881469726563 3225.86572265625 1038.88720703125 3225.797607421875 1038.884643554688 3225.72998046875 L 1038.884643554688 3224.96435546875 C 1038.89794921875 3224.896728515625 1038.856079101563 3224.831298828125 1038.7900390625 3224.815185546875 L 1038.747192382813 3224.80615234375 C 1038.727294921875 3224.805419921875 1038.709838867188 3224.791015625 1038.704467773438 3224.771240234375 C 1038.70703125 3224.749755859375 1038.725830078125 3224.734130859375 1038.747192382813 3224.735107421875 C 1038.770629882813 3224.735107421875 1038.793579101563 3224.739013671875 1038.815795898438 3224.7451171875 L 1038.9013671875 3224.74462890625 C 1038.947387695313 3224.7451171875 1038.993286132813 3224.742431640625 1039.038818359375 3224.736328125 L 1039.176025390625 3224.736328125 C 1039.467529296875 3224.736328125 1039.613159179688 3224.84228515625 1039.613159179688 3225.0703125 C 1039.613159179688 3225.212890625 1039.528076171875 3225.342041015625 1039.398681640625 3225.39599609375 Z M 1039.107421875 3225.3603515625 L 1039.210327148438 3225.3603515625 C 1039.2763671875 3225.37109375 1039.34375 3225.34912109375 1039.391357421875 3225.2998046875 C 1039.438720703125 3225.251708984375 1039.460693359375 3225.181884765625 1039.450317382813 3225.1142578125 C 1039.453125 3225.037109375 1039.421630859375 3224.963134765625 1039.364624023438 3224.912109375 C 1039.302978515625 3224.856689453125 1039.223754882813 3224.8251953125 1039.1416015625 3224.82421875 C 1039.120727539063 3224.819091796875 1039.098754882813 3224.82421875 1039.08203125 3224.838134765625 C 1039.0654296875 3224.851806640625 1039.055419921875 3224.87255859375 1039.056030273438 3224.89453125 L 1039.056030273438 3225.3076171875 C 1039.052612304688 3225.32275390625 1039.055419921875 3225.339111328125 1039.064575195313 3225.3515625 C 1039.064086914063 3225.3603515625 1039.081420898438 3225.3603515625 1039.10693359375 3225.3603515625 Z M 1056.494506835938 3245.473388671875 C 1056.785766601563 3245.470703125 1057.065063476563 3245.59228515625 1057.266357421875 3245.80810546875 C 1057.474975585938 3246.02099609375 1057.592041015625 3246.310546875 1057.592041015625 3246.61279296875 C 1057.592041015625 3246.9150390625 1057.474975585938 3247.2041015625 1057.266357421875 3247.417724609375 C 1057.04833984375 3247.637451171875 1056.751220703125 3247.754638671875 1056.445434570313 3247.7412109375 C 1056.140014648438 3247.72802734375 1055.853515625 3247.585205078125 1055.65478515625 3247.3466796875 C 1055.480224609375 3247.142822265625 1055.385498046875 3246.879638671875 1055.388549804688 3246.607666015625 C 1055.385375976563 3246.33837890625 1055.47998046875 3246.07861328125 1055.65478515625 3245.8779296875 C 1055.85595703125 3245.6142578125 1056.167724609375 3245.4638671875 1056.494384765625 3245.473876953125 Z M 1056.494506835938 3245.605712890625 C 1056.234375 3245.599609375 1055.982666015625 3245.70458984375 1055.800048828125 3245.8955078125 C 1055.613647460938 3246.084716796875 1055.5087890625 3246.34375 1055.5087890625 3246.61279296875 C 1055.5087890625 3246.88134765625 1055.613647460938 3247.139404296875 1055.800048828125 3247.329345703125 C 1056.18310546875 3247.716796875 1056.797607421875 3247.716796875 1057.1806640625 3247.329345703125 C 1057.367919921875 3247.138916015625 1057.473022460938 3246.878662109375 1057.47216796875 3246.607666015625 C 1057.470336914063 3246.054443359375 1057.033569335938 3245.607421875 1056.494384765625 3245.605224609375 Z M 1056.631958007813 3246.607666015625 L 1056.872314453125 3246.977294921875 L 1056.906372070313 3247.021240234375 C 1056.946655273438 3247.10791015625 1057.021728515625 3247.172119140625 1057.112182617188 3247.197021484375 L 1057.137939453125 3247.205810546875 C 1057.16357421875 3247.205810546875 1057.172119140625 3247.21435546875 1057.172119140625 3247.23193359375 C 1057.135131835938 3247.27392578125 1057.079345703125 3247.290283203125 1057.0263671875 3247.2763671875 C 1056.901611328125 3247.26513671875 1056.791381835938 3247.1884765625 1056.734985351563 3247.073974609375 L 1056.503540039063 3246.713623046875 L 1056.486206054688 3246.696044921875 C 1056.473388671875 3246.675048828125 1056.449584960938 3246.66455078125 1056.426391601563 3246.66943359375 L 1056.288940429688 3246.66943359375 L 1056.288940429688 3247.0126953125 C 1056.283813476563 3247.0634765625 1056.29296875 3247.115234375 1056.314575195313 3247.16259765625 C 1056.3505859375 3247.193359375 1056.396728515625 3247.208251953125 1056.443237304688 3247.205810546875 C 1056.454956054688 3247.203125 1056.467041015625 3247.205810546875 1056.476806640625 3247.212158203125 C 1056.486328125 3247.218994140625 1056.4931640625 3247.2294921875 1056.4951171875 3247.241455078125 C 1056.4921875 3247.262939453125 1056.473388671875 3247.278076171875 1056.452026367188 3247.2763671875 C 1056.434814453125 3247.2763671875 1056.417846679688 3247.268310546875 1056.391845703125 3247.268310546875 L 1056.0576171875 3247.268310546875 C 1056.044311523438 3247.2734375 1056.02978515625 3247.2763671875 1056.014770507813 3247.2763671875 C 1055.993530273438 3247.279052734375 1055.974365234375 3247.262939453125 1055.971801757813 3247.241455078125 C 1055.97216796875 3247.22216796875 1055.987426757813 3247.20654296875 1056.006103515625 3247.205810546875 C 1056.0458984375 3247.2041015625 1056.08203125 3247.180419921875 1056.1005859375 3247.14404296875 C 1056.1142578125 3247.077392578125 1056.11962890625 3247.009765625 1056.11767578125 3246.942138671875 L 1056.11767578125 3246.168212890625 C 1056.130981445313 3246.10009765625 1056.089111328125 3246.0341796875 1056.023315429688 3246.018798828125 L 1055.980590820313 3246.018798828125 C 1055.957397460938 3246.01708984375 1055.939086914063 3245.998046875 1055.937377929688 3245.974853515625 C 1055.937622070313 3245.95751953125 1055.954833984375 3245.948486328125 1055.980590820313 3245.948486328125 L 1056.048706054688 3245.948486328125 C 1056.066040039063 3245.948486328125 1056.091796875 3245.95751953125 1056.134765625 3245.95751953125 C 1056.160522460938 3245.95751953125 1056.203247070313 3245.948486328125 1056.271850585938 3245.948486328125 C 1056.323364257813 3245.948486328125 1056.3662109375 3245.93994140625 1056.409301757813 3245.93994140625 C 1056.700561523438 3245.93994140625 1056.846557617188 3246.054443359375 1056.846557617188 3246.2734375 C 1056.846313476563 3246.4189453125 1056.761840820313 3246.550537109375 1056.631713867188 3246.608154296875 Z M 1056.340576171875 3246.563720703125 L 1056.443237304688 3246.563720703125 C 1056.508056640625 3246.575439453125 1056.574096679688 3246.55419921875 1056.621826171875 3246.5068359375 C 1056.669067382813 3246.46044921875 1056.69189453125 3246.3935546875 1056.683349609375 3246.326416015625 C 1056.686889648438 3246.244140625 1056.65185546875 3246.165771484375 1056.58935546875 3246.11572265625 C 1056.527099609375 3246.06103515625 1056.447631835938 3246.032470703125 1056.3662109375 3246.036376953125 C 1056.346557617188 3246.032470703125 1056.326171875 3246.0390625 1056.311157226563 3246.052490234375 C 1056.296142578125 3246.066650390625 1056.287963867188 3246.08642578125 1056.288940429688 3246.106689453125 L 1056.288940429688 3246.51123046875 C 1056.288940429688 3246.53759765625 1056.288940429688 3246.55517578125 1056.297485351563 3246.55517578125 C 1056.30615234375 3246.55517578125 1056.314575195313 3246.564208984375 1056.340087890625 3246.564208984375 Z">
    </path>
</svg>