<?xml version="1.0" encoding="UTF-8"?>
<svg class="Star_cd" viewBox="31.95 41.034 19.882 19.054"
    xmlns="http://www.w3.org/2000/svg">
    <path d="m41.891 41.034c-0.36887 0-0.6751 0.24838-0.77058 0.58817l-1.955 6.0393h-6.4203c-0.44331 0-0.7952 0.38551-0.7952 0.83251 0 0.27351 0.13663 0.51775 0.34376 0.66299 0.1283 0.086929 5.1859 3.7817 5.1859 3.7817s-1.9424 5.9649-1.9801 6.06c-0.028728 0.086945-0.049374 0.18241-0.049374 0.28153 0 0.44738 0.36003 0.80779 0.80341 0.80779 0.16986 0 0.32724-0.053841 0.45987-0.14476l5.1777-3.7697s5.0617 3.6867 5.1777 3.7697c0.13216 0.090919 0.29 0.14476 0.45947 0.14476 0.44337 0 0.80376-0.36447 0.80376-0.80779 0-0.099121-0.020515-0.19459-0.049789-0.28153-0.037155-0.095108-1.9796-6.06-1.9796-6.06s5.0572-3.6948 5.1857-3.7817c0.20712-0.14523 0.34385-0.38948 0.34385-0.667 0-0.44299-0.34385-0.8285-0.78722-0.8285h-6.4202l-1.9636-6.0393c-0.094921-0.33979-0.4017-0.58817-0.77013-0.58817z"></path>
</svg>
